<svg id="BASE_LAYERS" data-name="BASE LAYERS" xmlns="http://www.w3.org/2000/svg" xmlns:xlink="http://www.w3.org/1999/xlink" viewBox="0 0 500 500"><defs><style>.cls-1{fill:#fff;}.cls-2{fill:url(#linear-gradient);}.cls-3{fill:url(#linear-gradient-2);}.cls-4{font-size:40.06779px;fill:#020161;font-family:HalyardDisplaySemiBold, Halyard Display;}.cls-5{fill:url(#linear-gradient-3);}</style><linearGradient id="linear-gradient" y1="250" x2="500" y2="250" gradientUnits="userSpaceOnUse"><stop offset="0" stop-color="#57bff2"/><stop offset="0.00851" stop-color="#5ab6ed" stop-opacity="0.98934"/><stop offset="0.05848" stop-color="#6887d1" stop-opacity="0.93209"/><stop offset="0.10809" stop-color="#7360b9" stop-opacity="0.88461"/><stop offset="0.15645" stop-color="#7c41a7" stop-opacity="0.84768"/><stop offset="0.20319" stop-color="#832c9a" stop-opacity="0.8213"/><stop offset="0.24761" stop-color="#871e93" stop-opacity="0.80541"/><stop offset="0.28721" stop-color="#881a90" stop-opacity="0.8"/><stop offset="0.33762" stop-color="#871f93" stop-opacity="0.80601"/><stop offset="0.39859" stop-color="#822d9b" stop-opacity="0.82337"/><stop offset="0.46502" stop-color="#7b45aa" stop-opacity="0.85212"/><stop offset="0.53531" stop-color="#7166bd" stop-opacity="0.89226"/><stop offset="0.60784" stop-color="#6590d6" stop-opacity="0.9432"/><stop offset="0.67682" stop-color="#57bff2"/><stop offset="0.73881" stop-color="#58bcf0" stop-opacity="0.99448"/><stop offset="0.78834" stop-color="#5bb2eb" stop-opacity="0.97715"/><stop offset="0.83359" stop-color="#60a2e1" stop-opacity="0.9479"/><stop offset="0.87629" stop-color="#668cd4" stop-opacity="0.90668"/><stop offset="0.9172" stop-color="#6f6ec2" stop-opacity="0.85344"/><stop offset="0.95673" stop-color="#7a4aad" stop-opacity="0.78814"/><stop offset="0.99451" stop-color="#862194" stop-opacity="0.71219"/><stop offset="1" stop-color="#881a90" stop-opacity="0.7"/></linearGradient><linearGradient id="linear-gradient-2" x1="64.23254" x2="435.76746" xlink:href="#linear-gradient"/><linearGradient id="linear-gradient-3" x1="112.19838" y1="260" x2="367.80162" y2="260" gradientUnits="userSpaceOnUse"><stop offset="0" stop-color="#57bff2"/><stop offset="0.00851" stop-color="#5ab6ed" stop-opacity="0.98934"/><stop offset="0.05848" stop-color="#6887d1" stop-opacity="0.93209"/><stop offset="0.10809" stop-color="#7360b9" stop-opacity="0.88461"/><stop offset="0.15645" stop-color="#7c41a7" stop-opacity="0.84768"/><stop offset="0.20319" stop-color="#832c9a" stop-opacity="0.8213"/><stop offset="0.24761" stop-color="#871e93" stop-opacity="0.80541"/><stop offset="0.28721" stop-color="#881a90" stop-opacity="0.8"/><stop offset="0.34797" stop-color="#82198e" stop-opacity="0.80957"/><stop offset="0.42142" stop-color="#6f1589" stop-opacity="0.83723"/><stop offset="0.50141" stop-color="#501080" stop-opacity="0.88297"/><stop offset="0.58548" stop-color="#260874" stop-opacity="0.94636"/><stop offset="0.64506" stop-color="#02016a"/><stop offset="0.68241" stop-color="#060970"/><stop offset="0.74175" stop-color="#102080"/><stop offset="0.81562" stop-color="#21469b"/><stop offset="0.90114" stop-color="#387ac1"/><stop offset="0.99546" stop-color="#55bcf0"/><stop offset="1" stop-color="#57bff2"/></linearGradient></defs><g id="Ourter_Circle" data-name="Ourter Circle"><circle class="cls-1" cx="250" cy="250" r="250"/><path class="cls-2" d="M250,12a238.06593,238.06593,0,0,1,92.63663,457.30173A238.06475,238.06475,0,0,1,157.36336,30.69827,236.49865,236.49865,0,0,1,250,12m0-12C111.92882,0,0,111.92882,0,250S111.92882,500,250,500,500,388.07117,500,250,388.07117,0,250,0Z"/></g><g id="Inner_Circle" data-name="Inner Circle"><path class="cls-3" d="M250,76.23254a173.76746,173.76746,0,1,1-122.87215,50.89531A172.63,172.63,0,0,1,250,76.23254m0-12C147.40346,64.23254,64.23254,147.40346,64.23254,250S147.40346,435.76746,250,435.76746,435.76746,352.59653,435.76746,250,352.59653,64.23254,250,64.23254Z"/></g><text class="cls-4" transform="matrix(-0.66489, -0.74695, 0.74695, -0.66489, 110.74421, 389.80744)">S</text><text class="cls-4" transform="translate(94.44131 371.55516) rotate(-124.30486)">U</text><text class="cls-4" transform="matrix(-0.45186, -0.89209, 0.89209, -0.45186, 79.57094, 349.57295)">P</text><text class="cls-4" transform="translate(68.60763 327.81446) rotate(-109.80782)">E</text><text class="cls-4" transform="translate(60.48415 305.34162) rotate(-102.5566)">R</text><text class="cls-4" transform="matrix(-0.09232, -0.99573, 0.99573, -0.09232, 55.04548, 281.18801)">U</text><text class="cls-4" transform="translate(52.34203 254.88338) rotate(-86.55186)">M</text><text class="cls-4" transform="translate(54.67915 220.81608) rotate(-77.62116)">A</text><text class="cls-4" transform="translate(60.64712 193.77844) rotate(-69.56958)">N</text><text class="cls-4" transform="translate(70.84359 167.79215) rotate(-64.20493)"> </text><text class="cls-4" transform="translate(74.79864 159.66625) rotate(-61.5558)"> </text><text class="cls-4" transform="translate(78.13428 151.79516) rotate(-54.84656)">W</text><text class="cls-4" transform="translate(100.06885 121.61972) rotate(-46.03182)">E</text><text class="cls-4" transform="translate(116.68352 104.4402) rotate(-39.17868)">E</text><text class="cls-4" transform="matrix(0.84984, -0.52704, 0.52704, 0.84984, 135.15884, 89.30707)">K</text><text class="cls-4" transform="matrix(0.90817, -0.41861, 0.41861, 0.90817, 158.0315, 75.35891)">L</text><text class="cls-4" transform="matrix(0.94187, -0.33599, 0.33599, 0.94187, 171.60884, 68.70214)">Y</text><text class="cls-4" transform="matrix(0.96713, -0.25432, 0.25432, 0.96713, 195.85912, 60.45298)"> </text><text class="cls-4" transform="translate(204.58959 58.1818) rotate(-12.10883)"> </text><text class="cls-4" transform="matrix(0.99359, -0.11311, 0.11311, 0.99359, 213.0169, 55.87679)">O</text><text class="cls-4" transform="translate(242.62644 52.61953) rotate(1.79291)">N</text><text class="cls-4" transform="matrix(0.98627, 0.16518, -0.16518, 0.98627, 270.29696, 53.58697)">B</text><text class="cls-4" transform="translate(295.12522 57.59554) rotate(17.41114)">O</text><text class="cls-4" transform="translate(321.56313 65.84469) rotate(25.18826)">A</text><text class="cls-4" transform="translate(346.59372 77.72469) rotate(33.02595)">R</text><text class="cls-4" transform="matrix(0.7573, 0.65307, -0.65307, 0.7573, 368.2172, 91.74536)">D</text><text class="cls-4" transform="matrix(0.69011, 0.72371, -0.72371, 0.69011, 389.02343, 110.2742)">I</text><text class="cls-4" transform="matrix(0.61572, 0.78797, -0.78797, 0.61572, 397.03677, 118.1301)">N</text><text class="cls-4" transform="translate(414.0447 139.90273) rotate(60.16474)">G</text><g id="Chicken"><path class="cls-5" d="M228.02777,374.615q8.3422-10.2154,16.69548-20.42169a1.31488,1.31488,0,0,0,.27585-1.422q-3.35119-10.5666-6.63494-21.15451a4.95169,4.95169,0,0,1-.21775-1.43906q-.02146-9.1904.00472-18.38081a1.24623,1.24623,0,0,0-.68425-1.22082q-2.26545-1.38459-4.47241-2.86371a1.275,1.275,0,0,0-1.28973-.12916q-13.54842,4.8122-27.10881,9.59073c-.21918.07741-.445.136-.77547.236.24532-1.20562.47357-2.33962.707-3.47256q2.14725-10.42073,4.30728-20.8388a.8162.8162,0,0,0-.43928-1.01706q-10.16744-6.4305-20.30591-12.90667a2.75742,2.75742,0,0,1-.87057-.89067q-11.55294-19.73849-23.06651-39.5a1.56253,1.56253,0,0,1-.19106-.945c.629-4.17193,1.28691-8.33951,1.93384-12.50876a4.09611,4.09611,0,0,0,.00277-.5291l-53.69965,13.93433c.21514-.99531.39975-1.8808.59831-2.76315q3.56334-15.83436,7.12991-31.668,3.24049-14.40038,6.47623-28.80182c.3131-1.39236.65177-2.77958.92976-4.17889a1.05851,1.05851,0,0,1,.75476-.89206q22.99566-8.93478,45.98054-17.8973c2.3026-.89689,4.60875-1.78493,6.90342-2.70169a.90448.90448,0,0,1,1.0778.19864Q208.172,173.01858,234.321,195.97618a1.26457,1.26457,0,0,1,.496,1.34848c-.94838,5.50074-1.85394,11.00886-2.773,16.51466q-1.052,6.3024-2.104,12.60481c-.03106.18658-.03254.37808-.04521.53528,1.07565,0,2.13395.03244,3.18967-.00586,3.73-.13532,7.45923-.2915,11.1885-.446q7.63922-.3165,15.278-.64217c2.8339-.1196,5.66724-.25544,8.502-.34987.57555-.01917.785-.20193.87807-.78716.84656-5.32356,1.731-10.64111,2.604-15.96047q1.12313-6.84339,2.25269-13.6857a5.21715,5.21715,0,0,1,.39-1.339q8.84352-18.94189,17.72621-37.86548a1.35254,1.35254,0,0,1,.78069-.6241q17.5914-4.94771,35.19849-9.83942a1.718,1.718,0,0,1,1.0893.09393q19.12538,8.82981,38.23392,17.69609c.17159.07951.33916.1677.59527.29487-.30113.248-.55145.46088-.80872.665q-15.07146,11.95954-30.15263,23.90684a1.4492,1.4492,0,0,0-.6393,1.59314c1.12167,6.963,2.18,13.93608,3.26652,20.90474.91906,5.8947,1.85614,11.78658,2.77582,17.68118q1.50279,9.63193,2.98909,19.2664a2.80207,2.80207,0,0,0,.06108.31363,4.43047,4.43047,0,0,1-.44423,3.34647c-5.36371,10.6159-10.66457,21.26354-15.99931,31.89411a2.59987,2.59987,0,0,1-.8057.94247q-29.45964,20.30241-58.94813,40.563a1.194,1.194,0,0,0-.57719,1.45014q2.2569,11.44236,4.45645,22.896c.00406.0209.00455.04251.00838.06348.39728,2.17613.4,2.17263,2.16149,3.54407q14.16834,11.03108,28.33426,22.06529ZM210.55746,284.5335c.07255-.24221.14018-.4179.17749-.59978q1.86809-9.10708,3.73084-18.2153c1.81137-8.84809,3.63942-17.6928,5.42737-26.54561.88106-4.36248,1.73207-8.732,2.51678-13.1127.84491-4.71671,1.5991-9.4497,2.38764-14.17647.6624-3.9706,1.31124-7.94349,1.98447-11.91224a.88689.88689,0,0,0-.34711-.92647q-21.22871-18.66294-42.44425-37.34087c-.14989-.1319-.31217-.2497-.54025-.431-.31192,1.9659-.61129,3.81559-.89811,5.66723q-1.50206,9.69653-2.99785,19.394-1.91057,12.31753-3.831,24.63354-1.96042,12.56932-3.91619,25.13935a1.97341,1.97341,0,0,0,.162,1.205q10.41779,17.88288,20.88834,35.735a2.20447,2.20447,0,0,0,.69046.72064q8.01765,5.10053,16.05228,10.1743C209.90294,284.13366,210.20952,284.31875,210.55746,284.5335Zm112.5364-130.78082c-.27216.07138-.45813.11327-.6399.16884q-11.21019,3.42707-22.42438,6.84093a1.92925,1.92925,0,0,0-1.30237,1.0646q-3.55536,7.08592-7.15781,14.1482-4.49587,8.86718-8.98546,17.73752a21.27777,21.27777,0,0,0-1.58237,3.60517,37.291,37.291,0,0,0-.73332,4.27871q-1.17622,7.19011-2.3553,14.37977-.9224,5.612-1.8598,11.22141a1.10994,1.10994,0,0,0,.3443,1.07149c1.89023,1.94111,3.75044,3.91142,5.62166,5.87106q6.34272,6.64242,12.69686,13.27392a1.20315,1.20315,0,0,0,.81219.35346c3.55633-.16981,7.11071-.3798,10.66613-.56924q7.37766-.3931,14.75613-.7711,7.85772-.40215,15.716-.793c.19966-.01015.39733-.05908.63424-.09589Q330.18744,199.58216,323.09386,153.75268ZM213.87741,305.96076c.38414-.12278.629-.19381.869-.27877q27.82841-9.85275,55.656-19.70793,7.559-2.67708,15.11781-5.35476c.33435-.11812.62035-.21476.66875-.65012.1601-1.44032.3485-2.87753.53155-4.31522q.67431-5.29623,1.35324-10.59186c.44728-3.50984.814-7.03261,1.37815-10.52352a3.08225,3.08225,0,0,0-1.062-2.93416q-8.73549-9.05021-17.38622-18.18207a1.43166,1.43166,0,0,0-1.2169-.50992q-6.96566.32472-13.933.61438-7.47821.32289-14.95661.64183c-3.94143.16953-7.88255.34674-11.82455.502-.435.01713-.61719.132-.71012.59277q-1.96425,9.73849-3.97439,19.46776-2.40552,11.70532-4.82046,23.40869-2.42356,11.7972-4.83493,23.59691C214.45216,303.107,214.1774,304.47852,213.87741,305.96076Zm-91.72576-77.55128c.32626-.07771.51078-.1182.69349-.16567q15.76869-4.09675,31.53717-8.19439,6.18465-1.60675,12.37217-3.20243c.354-.09076.54238-.20978.59291-.61041.13058-1.03525.32489-2.06231.4843-3.09411q1.11271-7.20224,2.22172-14.405,1.37658-8.84258,2.77013-17.68251,1.4001-8.96865,2.78831-17.93914c.16839-1.08589.32336-2.17386.49691-3.34437-.346.11974-.587.19409-.82131.28552q-20.39307,7.95782-40.78855,15.90941a1.04671,1.04671,0,0,0-.7415.83829c-.55487,2.56-1.13286,5.115-1.70864,7.67041q-4.44522,19.72888-8.89306,39.45716C122.8294,225.38,122.50611,226.82852,122.15165,228.40948Zm213.27572,24.90108c-.51406,0-.89732-.01635-1.27881.00268-2.36439.11795-4.72832.24494-7.09252.36684q-4.05762.2092-8.11536.41561-6.99591.36564-13.99158.73638-3.76987.19728-7.54042.38185c-.35.01668-.54994.11973-.59624.502q-.44606,3.68224-.91621,7.36155-.7197,5.71022-1.44444,11.4198c-.4563,3.59433-.9239,7.1873-1.36464,10.78353a.97586.97586,0,0,1-.7399.94673Q267.273,295.05819,242.212,303.92619c-.2116.07477-.41359.17671-.68225.29286.17331.13463.28111.2334.40264.31063q11.01744,7.00257,22.03209,14.00952a.65131.65131,0,0,0,.84892-.03967c1.83727-1.28177,3.68683-2.5459,5.53213-3.81612q25.913-17.837,51.819-35.684a2.48689,2.48689,0,0,0,.77643-.8874q5.67222-11.2125,11.31111-22.44184C334.63276,254.91361,335.00743,254.154,335.42737,253.31056ZM281.49973,367.06605c-.27826-.23684-.44276-.38828-.6187-.525q-6.92484-5.38187-13.84353-10.77165a1.50518,1.50518,0,0,1-.52784-.80975c-.8828-4.47144-1.73561-8.94876-2.5965-13.42453q-1.49054-7.74957-2.98161-15.49905a1.31093,1.31093,0,0,0-.6046-.97556q-7.04018-4.42948-14.05622-8.89737c-.15319-.0971-.31947-.17352-.57934-.31312v.79127c0,4.1624-.00505,8.32483.00814,12.48718a4.09121,4.09121,0,0,0,.18567,1.18737q3.777,12.1054,7.58487,24.20114a1.06285,1.06285,0,0,1-.21947,1.14334q-3.98377,4.80528-7.92676,9.64439c-.4538.55352-.90244,1.11128-1.42995,1.76137Zm53.21913-186.86426,18.80652-14.89465L330.808,155.12781C332.12,163.53913,333.40782,171.79611,334.71886,180.20179Z"/></g></svg>